# Blender v2.76 (sub 0) OBJ File: 'untitled.blend'
# www.blender.org
mtllib frustum2.mtl
o Cube
v -0.500000 0.500000 1.000000
v -0.500000 -0.500000 1.000000
v 0.500000 -0.500000 1.000000
v 0.500000 0.500000 1.000000
v -0.000000 -0.000000 0.000000
vn 0.000000 0.000000 1.000000
vn -0.894400 -0.000000 -0.447200
vn 0.000000 -0.894400 -0.447200
vn 0.894400 0.000000 -0.447200
vn -0.000000 0.894400 -0.447200
usemtl Material
s off
f 1//1 2//1 3//1 4//1
f 1//2 5//2 2//2
f 2//3 5//3 3//3
f 3//4 5//4 4//4
f 5//5 1//5 4//5
